<svg width="13" height="89" viewBox="0 0 13 89" fill="none" xmlns="http://www.w3.org/2000/svg">
<path d="M12.2115 82.6307C12.2047 83.4734 12.0598 84.2509 11.7768 84.9633C11.4831 85.665 11.0782 86.2751 10.5621 86.7937C10.0353 87.3015 9.41879 87.6965 8.7125 87.9789C7.99564 88.2505 7.21588 88.3829 6.37324 88.3761C5.54127 88.3695 4.77445 88.2193 4.07278 87.9257C3.3712 87.6214 2.76122 87.2005 2.24284 86.663C1.72446 86.1255 1.32414 85.4983 1.04188 84.7813C0.759701 84.0537 0.621988 83.2686 0.628741 82.4259C0.633015 81.8926 0.706534 81.3705 0.849299 80.8596C0.992064 80.3488 1.20386 79.8758 1.48469 79.4407C1.75494 78.9948 2.08334 78.6135 2.46989 78.2965L4.36037 79.9917C3.99506 80.3195 3.70941 80.6906 3.50342 81.1049C3.29751 81.5086 3.19255 81.9611 3.18853 82.4624C3.18511 82.8891 3.25653 83.295 3.40278 83.6802C3.54912 84.0547 3.76517 84.3818 4.05094 84.6614C4.33671 84.9411 4.67628 85.1624 5.06965 85.3256C5.46302 85.4888 5.91036 85.5723 6.41168 85.5764C6.90233 85.5803 7.35092 85.5092 7.75743 85.3631C8.15337 85.2063 8.49649 84.9851 8.78679 84.6994C9.0665 84.4029 9.28265 84.0527 9.43523 83.6485C9.58789 83.2337 9.66623 82.7757 9.67025 82.2744C9.6729 81.9437 9.63275 81.6287 9.54981 81.3294C9.4563 81.0193 9.32528 80.7302 9.15675 80.4622C8.98823 80.1942 8.79807 79.9633 8.58628 79.7696L10.7089 78.4586C10.9948 78.7169 11.2533 79.071 11.4844 79.5208C11.7155 79.96 11.8983 80.4522 12.0326 80.9973C12.1563 81.5316 12.2159 82.0761 12.2115 82.6307ZM12.3133 69.9214C12.3066 70.764 12.1563 71.5415 11.8626 72.2539C11.569 72.9555 11.1641 73.5656 10.6479 74.0842C10.1212 74.592 9.50464 74.9871 8.79835 75.2694C8.0814 75.5517 7.3016 75.6894 6.45896 75.6827C5.62699 75.676 4.86017 75.5259 4.1585 75.2322C3.44616 74.9385 2.83072 74.5336 2.31218 74.0174C1.79371 73.4906 1.39331 72.874 1.11096 72.1677C0.828696 71.4508 0.69094 70.671 0.697693 69.8283C0.70436 68.9963 0.85451 68.2295 1.14814 67.5279C1.44177 66.8262 1.85197 66.2215 2.37872 65.7137C2.90556 65.1952 3.52745 64.7948 4.2444 64.5126C4.95069 64.2302 5.72515 64.0924 6.56779 64.0992C7.39976 64.1058 8.16659 64.256 8.86826 64.5496C9.56993 64.8433 10.18 65.2535 10.6985 65.7803C11.217 66.2965 11.6174 66.9077 11.8998 67.614C12.1821 68.3203 12.32 69.0894 12.3133 69.9214ZM9.7374 69.9008C9.74091 69.4634 9.66412 69.0628 9.50703 68.6989C9.34994 68.3349 9.12847 68.0185 8.84261 67.7495C8.55684 67.4699 8.21723 67.2538 7.82377 67.1013C7.43032 66.9488 7.00426 66.8708 6.54561 66.8671C6.07629 66.8633 5.64371 66.9345 5.24786 67.0807C4.85201 67.2269 4.50897 67.4375 4.21876 67.7125C3.91797 67.9767 3.68612 68.2896 3.52322 68.6509C3.36032 69.0123 3.27711 69.4116 3.27361 69.849C3.27011 70.2863 3.34686 70.6922 3.50386 71.0668C3.66095 71.4308 3.88771 71.7526 4.18414 72.0323C4.47 72.3013 4.80965 72.512 5.20311 72.6645C5.59657 72.817 6.02795 72.8951 6.49727 72.8989C7.11592 72.9039 7.67159 72.7803 8.1643 72.5282C8.64642 72.2654 9.02794 71.9111 9.30885 71.4654C9.58985 71.0089 9.7327 70.4874 9.7374 69.9008ZM12.229 60.4713L1.0294 60.3816L1.04902 57.9336L9.07995 52.1098L9.01172 52.6373C8.41381 52.7071 7.85864 52.7667 7.34623 52.8159C6.82316 52.8651 6.27887 52.898 5.71339 52.9148C5.14799 52.921 4.4973 52.9211 3.76132 52.9152L1.08941 52.8938L1.11069 50.2379L12.3103 50.3276L12.2905 52.8075L4.01775 58.8534L4.13602 58.0704C4.78727 58.0009 5.32639 57.9466 5.75338 57.9073C6.18038 57.8681 6.54862 57.839 6.85812 57.8202C7.15694 57.8012 7.43973 57.7875 7.70647 57.779C7.96255 57.7704 8.25058 57.7673 8.57057 57.7699L12.2505 57.7994L12.229 60.4713ZM12.3649 43.518L3.58118 43.4476L3.55477 46.7435L1.13885 46.7241L1.2145 37.2844L3.63042 37.3038L3.60311 40.7117L12.3868 40.7821L12.3649 43.518ZM12.4247 36.0547L1.26058 31.5331L1.27918 29.2132L12.5141 24.9031L12.492 27.655L6.79515 29.7374C6.57056 29.8103 6.32989 29.8937 6.07312 29.9876C5.81645 30.0709 5.54911 30.1541 5.2711 30.2372C4.99309 30.3203 4.72579 30.3982 4.4692 30.4708C4.21261 30.5434 3.97211 30.6055 3.74769 30.657L3.7354 30.1929C4.00155 30.259 4.26232 30.3305 4.51771 30.4072C4.77311 30.4839 5.02846 30.5659 5.28376 30.6533C5.53907 30.7407 5.79434 30.8334 6.04956 30.9315C6.2942 31.0188 6.54947 31.1115 6.81536 31.2096L12.4463 33.3668L12.4247 36.0547ZM10.2977 33.9256L8.22469 33.045L8.26572 27.9251L10.3526 27.0778L10.2977 33.9256ZM12.7363 17.1329C12.7296 17.9755 12.5847 18.753 12.3016 19.4654C12.008 20.1671 11.6031 20.7772 11.0869 21.2958C10.5602 21.8036 9.94366 22.1986 9.23738 22.481C8.52051 22.7526 7.74076 22.885 6.89812 22.8783C6.06615 22.8716 5.29933 22.7214 4.59766 22.4278C3.89607 22.1235 3.28609 21.7026 2.76772 21.1651C2.24934 20.6276 1.84902 20.0004 1.56676 19.2834C1.28458 18.5558 1.14687 17.7707 1.15362 16.928C1.15789 16.3947 1.23141 15.8726 1.37418 15.3617C1.51694 14.8509 1.72874 14.3779 2.00957 13.9428C2.27982 13.4969 2.60822 13.1156 2.99477 12.7987L4.88524 14.4939C4.51994 14.8216 4.23429 15.1927 4.0283 15.607C3.82239 16.0107 3.71743 16.4632 3.71341 16.9645C3.70999 17.3912 3.7814 17.7971 3.92766 18.1823C4.07399 18.5568 4.29005 18.8839 4.57581 19.1635C4.86158 19.4432 5.20115 19.6646 5.59452 19.8277C5.9879 19.9909 6.43524 20.0745 6.93656 20.0785C7.42721 20.0824 7.87579 20.0113 8.28231 19.8652C8.67825 19.7084 9.02136 19.4872 9.31166 19.2015C9.59138 18.905 9.80753 18.5548 9.9601 18.1506C10.1128 17.7358 10.1911 17.2778 10.1951 16.7765C10.1978 16.4458 10.1576 16.1308 10.0747 15.8315C9.98117 15.5214 9.85015 15.2323 9.68163 14.9643C9.5131 14.6963 9.32295 14.4654 9.11116 14.2717L11.2337 12.9607C11.5197 13.219 11.7782 13.5731 12.0092 14.0229C12.2404 14.4621 12.4231 14.9543 12.5574 15.4994C12.6812 16.0337 12.7408 16.5782 12.7363 17.1329ZM12.6568 7.09414L3.87307 7.02375L3.84666 10.3196L1.43074 10.3003L1.50638 0.860591L3.92231 0.879952L3.895 4.28784L12.6787 4.35823L12.6568 7.09414Z" fill="white"/>
</svg>
