<svg width="28" height="27" viewBox="0 0 28 27" fill="none" xmlns="http://www.w3.org/2000/svg">
<path fill-rule="evenodd" clip-rule="evenodd" d="M0.622525 2.25443C0.62111 1.6863 0.845911 1.14088 1.24748 0.738152C1.64904 0.335422 2.19447 0.108374 2.76379 0.106956L25.2562 0.0509102C25.8255 0.0494916 26.3721 0.273819 26.7757 0.674542C27.1792 1.07526 27.4067 1.61956 27.4082 2.18769L27.4641 24.6332C27.4655 25.2013 27.2407 25.7468 26.8391 26.1495C26.4376 26.5522 25.8921 26.7793 25.3228 26.7807L2.83039 26.8367C2.26108 26.8381 1.71452 26.6138 1.31095 26.2131C0.907386 25.8124 0.67987 25.2681 0.678454 24.7L0.622525 2.25443ZM19.0454 25.7271L19.0198 15.4853L22.4945 15.4767L23.0047 11.4841L19.0099 11.4941L19.0035 8.94564C19.0007 7.78985 19.3228 7.00158 20.998 6.9974L23.1344 6.99101L23.1255 3.42098C22.7557 3.37379 21.4874 3.26789 20.0121 3.27157C16.9317 3.27925 14.8278 5.14489 14.8363 8.56096L14.8437 11.5044L11.3599 11.5131L11.3699 15.5044L14.8536 15.4957L14.8791 25.7375L19.0454 25.7271Z" fill="white"/>
</svg>
