<svg width="54" height="54" viewBox="0 0 54 54" fill="none" xmlns="http://www.w3.org/2000/svg">
              <path d="M20.9479 53.6139L13.7292 40.1973L0.3125 32.9785L5.48958 27.8743L16.0625 29.6973L23.5 22.2598L0.385417 12.416L6.51042 6.14518L34.5833 11.1035L43.625 2.06185C44.7431 0.943794 46.1285 0.384766 47.7812 0.384766C49.434 0.384766 50.8194 0.943794 51.9375 2.06185C53.0556 3.1799 53.6146 4.55268 53.6146 6.18018C53.6146 7.80768 53.0556 9.18143 51.9375 10.3014L42.8229 19.416L47.7812 47.416L41.5833 53.6139L31.6667 30.4993L24.2292 37.9369L26.125 48.4369L20.9479 53.6139Z" fill="#0D3046" />
            </svg>