<svg class="svg-1" width="50" height="58" viewBox="0 0 50 58" fill="none" xmlns="http://www.w3.org/2000/svg">
              <path d="M49.3614 12.1899C49.1768 12.0432 48.9561 11.9488 48.7224 11.9169C48.4888 11.8849 48.2508 11.9165 48.0336 12.0084L26.9023 21.1587C25.9836 21.559 24.833 21.7493 23.6517 21.7493C22.0045 21.7559 20.3005 21.373 19.1127 20.8524C18.7505 20.7003 18.4058 20.5096 18.0845 20.2837C18.1735 20.2399 18.2792 20.1933 18.4017 20.1437L37.6211 11.8224L40.4867 13.0474V9.46648C40.4902 9.21123 40.4365 8.95845 40.3293 8.72676C40.2222 8.49506 40.0644 8.29036 39.8677 8.12773C39.6846 7.97962 39.4645 7.88441 39.2313 7.85241C38.998 7.8204 38.7604 7.85283 38.5442 7.94617L17.413 17.0965C16.7611 17.359 16.2011 17.6827 15.7286 18.153C15.182 18.6932 14.8714 19.4277 14.8645 20.1962C14.8645 20.218 14.8711 20.2552 14.8711 20.2552V52.4771L14.8667 52.5209L14.8733 52.5427V52.5777H14.8777C14.9214 53.7043 15.4902 54.4218 16.0327 54.9293C17.7389 56.4343 20.6045 57.2765 23.6539 57.3202C25.0977 57.3202 26.5633 57.1015 27.9195 56.5196L49.0573 47.3671C49.6152 47.1265 49.9805 46.5293 49.9805 45.8534V13.5287C49.984 13.2734 49.9302 13.0206 49.8231 12.7889C49.7159 12.5572 49.5582 12.3525 49.3614 12.1899ZM35.9586 6.06492C35.9214 5.58367 35.7223 5.12429 35.368 4.84867C35.1834 4.7019 34.9626 4.60759 34.729 4.57564C34.4953 4.54369 34.2574 4.57529 34.0402 4.6671L12.9089 13.813C11.9902 14.2112 10.8373 14.4037 9.65828 14.4037C8.01109 14.408 6.30703 14.0252 5.11922 13.5024C4.75727 13.3517 4.41258 13.1625 4.09109 12.938C4.18005 12.8943 4.28578 12.8476 4.40828 12.798L23.6298 4.47679L26.4955 5.70179V2.12523C26.4987 1.86981 26.4446 1.61692 26.3371 1.38521C26.2296 1.1535 26.0714 0.948892 25.8742 0.786479C25.6898 0.640118 25.4695 0.546037 25.2363 0.514094C25.0031 0.48215 24.7655 0.51352 24.5486 0.604916L3.41734 9.75742C2.76547 10.0199 2.20766 10.3415 1.73297 10.814C1.18723 11.3545 0.877405 12.089 0.871094 12.8571C0.871094 12.8834 0.877656 12.9184 0.877656 12.9184V45.243H0.882032C0.925781 46.3696 1.49453 47.0871 2.03703 47.5946C3.74328 49.0996 6.60891 49.9396 9.66047 49.9834C10.4892 49.978 11.3152 49.8886 12.1258 49.7165V20.253C12.1039 18.7218 12.7164 17.2518 13.7927 16.193C14.5392 15.4709 15.4249 14.9083 16.3958 14.5393L35.9586 6.06492Z" fill="#0D3046" />
            </svg>