<svg width="57" height="56" viewBox="0 0 57 56" fill="none" xmlns="http://www.w3.org/2000/svg">
              <path d="M51.2641 9.50023H53.3349C54.1085 9.50023 54.8504 9.80752 55.3973 10.3545C55.9443 10.9015 56.2516 11.6433 56.2516 12.4169V32.8336C56.2516 33.6071 55.9443 34.349 55.3973 34.896C54.8504 35.4429 54.1085 35.7502 53.3349 35.7502H47.5016L35.3391 18.7286C34.6317 17.7388 33.6326 16.9949 32.4815 16.6011C31.3304 16.2073 30.085 16.1832 28.9195 16.5323L21.6687 18.7081C20.66 19.0101 19.5885 19.0334 18.5676 18.7756C17.5468 18.5179 16.6147 17.9886 15.8704 17.244L15.0158 16.3894C14.7107 16.0843 14.477 15.7154 14.3317 15.3092C14.1864 14.9029 14.133 14.4695 14.1754 14.0401C14.2178 13.6108 14.355 13.1962 14.577 12.8262C14.7989 12.4562 15.1002 12.1401 15.4591 11.9006L31.212 1.40065C32.1524 0.773299 33.2548 0.432702 34.3852 0.420275C35.5155 0.407847 36.6252 0.724124 37.5791 1.33065L49.7008 9.04523C50.1673 9.34169 50.7114 9.49949 51.2641 9.50023ZM9.66078 33.694L4.94745 37.8181C4.62532 38.1005 4.36934 38.4504 4.19772 38.8429C4.0261 39.2354 3.94305 39.6609 3.95446 40.0891C3.96588 40.5174 4.07148 40.9378 4.26377 41.3206C4.45606 41.7034 4.73031 42.0392 5.06703 42.304L20.0587 54.0873C20.3883 54.3467 20.7699 54.532 21.1776 54.6306C21.5853 54.7291 22.0094 54.7385 22.4211 54.6583C22.8327 54.578 23.2222 54.4099 23.563 54.1654C23.9038 53.9209 24.1879 53.6057 24.3958 53.2415L26.4491 49.6481C27.0606 48.5781 27.3174 47.3418 27.1827 46.1167C27.048 44.8916 26.5288 43.7407 25.6995 42.829L17.8187 34.1606C16.791 33.0299 15.3606 32.3476 13.8351 32.2603C12.3096 32.173 10.8107 32.6878 9.66078 33.694ZM15.5495 6.58356H3.7487C2.97515 6.58356 2.23328 6.89085 1.6863 7.43783C1.13932 7.98482 0.832031 8.72668 0.832031 9.50023V31.4219C0.832187 32.5983 1.18803 33.7472 1.85286 34.7177L2.0687 34.5252L6.77911 30.4011C8.79159 28.64 11.4147 27.739 14.0846 27.8917C16.7544 28.0445 19.2577 29.2387 21.0562 31.2177L28.937 39.8861C30.3874 41.4811 31.2956 43.4944 31.5314 45.6374C31.7672 47.7804 31.3185 49.943 30.2495 51.8152L28.3391 55.1577C29.1633 55.4703 30.0476 55.592 30.9256 55.5137C31.8036 55.4354 32.6524 55.1591 33.4083 54.7057L46.2708 46.9881C46.6157 46.7809 46.9139 46.5046 47.1469 46.1765C47.3798 45.8484 47.5423 45.4757 47.6242 45.0818C47.7061 44.6879 47.7056 44.2813 47.6228 43.8876C47.54 43.4938 47.3766 43.1215 47.1429 42.794L31.7808 21.2719C31.6039 21.0247 31.3542 20.839 31.0666 20.7407C30.7789 20.6424 30.4678 20.6364 30.1766 20.7236L22.9258 22.8965C21.1606 23.426 19.285 23.4678 17.498 23.0175C15.711 22.5671 14.0792 21.6414 12.7758 20.3386L11.9212 19.484C11.1582 18.7213 10.5738 17.7989 10.2104 16.7831C9.84695 15.7674 9.71342 14.6836 9.81944 13.61C9.92546 12.5364 10.2684 11.4997 10.8235 10.5747C11.3786 9.64965 12.1321 8.8593 13.0295 8.26065L15.5495 6.58356Z" fill="#0D3046" />
                   </svg>