<svg width="70" height="70" viewBox="0 0 70 70" fill="none" xmlns="http://www.w3.org/2000/svg">
              <path d="M2.91797 46.6667V44.9896C2.91797 42.1215 4.30339 40.2257 7.07422 39.3021C9.84505 38.3785 12.3485 37.9167 14.5846 37.9167C16.8207 37.9167 19.3242 38.3785 22.0951 39.3021C24.8659 40.2257 26.2513 42.1215 26.2513 44.9896V46.6667H2.91797ZM14.5846 35C12.9805 35 11.6077 34.4293 10.4663 33.2879C9.32491 32.1465 8.75325 30.7728 8.7513 29.1667C8.74936 27.5606 9.32103 26.1878 10.4663 25.0483C11.6116 23.9089 12.9844 23.3372 14.5846 23.3333C16.1849 23.3294 17.5587 23.9011 18.7059 25.0483C19.8531 26.1956 20.4238 27.5683 20.418 29.1667C20.4121 30.765 19.8414 32.1388 18.7059 33.2879C17.5703 34.4371 16.1966 35.0078 14.5846 35ZM28.2201 39.1563C27.6367 39.1563 27.1263 38.9375 26.6888 38.5C26.2513 38.0625 26.0326 37.5521 26.0326 36.9688C26.0326 36.6771 26.2513 36.1667 26.6888 35.4375C27.0777 34.9514 27.3451 34.4167 27.4909 33.8333C27.6367 33.25 27.7096 32.6667 27.7096 32.0833C27.7096 31.5 27.6367 30.9293 27.4909 30.3713C27.3451 29.8132 27.0777 29.2901 26.6888 28.8021C26.4944 28.559 26.3369 28.3043 26.2163 28.0379C26.0957 27.7715 26.0345 27.4915 26.0326 27.1979C26.0326 26.566 26.2396 26.0439 26.6538 25.6317C27.068 25.2194 27.5901 25.0124 28.2201 25.0104C28.6089 25.0104 28.9619 25.1203 29.2788 25.34C29.5957 25.5597 29.8748 25.8144 30.1159 26.1042C30.7478 26.9792 31.2339 27.9271 31.5742 28.9479C31.9145 29.9688 32.0846 31.0139 32.0846 32.0833C32.0846 33.1528 31.9145 34.1862 31.5742 35.1838C31.2339 36.1812 30.7478 37.1408 30.1159 38.0625C29.8728 38.3542 29.5938 38.6099 29.2788 38.8296C28.9638 39.0493 28.6109 39.1582 28.2201 39.1563ZM34.418 45.4271C33.786 45.4271 33.2513 45.221 32.8138 44.8088C32.3763 44.3965 32.1576 43.8735 32.1576 43.2396C32.1576 42.9479 32.2188 42.6689 32.3413 42.4025C32.4638 42.1361 32.6213 41.8804 32.8138 41.6354C34.0291 40.2743 34.941 38.7674 35.5496 37.1146C36.1582 35.4618 36.4616 33.7847 36.4596 32.0833C36.4577 30.3819 36.1544 28.7165 35.5496 27.0871C34.9449 25.4576 34.033 23.9633 32.8138 22.6042C32.6194 22.3611 32.4619 22.1181 32.3413 21.875C32.2208 21.6319 32.1595 21.3646 32.1576 21.0729C32.1576 20.441 32.3646 19.9063 32.7788 19.4688C33.193 19.0313 33.7151 18.8125 34.3451 18.8125C34.6853 18.8125 35.0013 18.8854 35.293 19.0313C35.5846 19.1771 35.852 19.3715 36.0951 19.6146C37.6992 21.4132 38.8902 23.3819 39.668 25.5208C40.4458 27.6597 40.8346 29.8472 40.8346 32.0833C40.8346 34.3194 40.4331 36.5196 39.6301 38.6838C38.827 40.8479 37.6487 42.8283 36.0951 44.625C35.852 44.8681 35.5973 45.0625 35.3309 45.2083C35.0645 45.3542 34.7602 45.4271 34.418 45.4271ZM43.7513 46.6667V44.9896C43.7513 42.1215 45.1367 40.2257 47.9076 39.3021C50.6784 38.3785 53.1819 37.9167 55.418 37.9167C57.6541 37.9167 60.1576 38.3785 62.9284 39.3021C65.6992 40.2257 67.0846 42.1215 67.0846 44.9896V46.6667H43.7513ZM55.418 35C53.8138 35 52.441 34.4293 51.2996 33.2879C50.1582 32.1465 49.5866 30.7728 49.5846 29.1667C49.5827 27.5606 50.1544 26.1878 51.2996 25.0483C52.4449 23.9089 53.8177 23.3372 55.418 23.3333C57.0183 23.3294 58.392 23.9011 59.5392 25.0483C60.6864 26.1956 61.2571 27.5683 61.2513 29.1667C61.2455 30.765 60.6748 32.1388 59.5392 33.2879C58.4037 34.4371 57.0299 35.0078 55.418 35Z" fill="#0D3046" />
            </svg>