<?xml version="1.0" encoding="UTF-8"?>
<svg version="1.1" xmlns="http://www.w3.org/2000/svg" width="100%" height="auto" viewBox="0 0 1440 597">
  <path d="M0 0 C183.08573791 -0.16151457 183.08573791 -0.16151457 253.15189886 -0.19265985 C271.47409908 -0.20082488 289.7962992 -0.20917667 308.11849907 -0.21810398 C310.33477315 -0.21918333 312.55104723 -0.22025682 314.76732132 -0.22132435 C350.11323007 -0.23839853 385.45911327 -0.26841873 420.80500657 -0.30518888 C457.12534713 -0.34290422 493.44567355 -0.36753828 529.76603336 -0.37565996 C534.89339463 -0.37681262 540.02075586 -0.37811517 545.14811707 -0.37950897 C546.15727753 -0.37977866 547.166438 -0.38004836 548.20617909 -0.38032622 C564.46554142 -0.38505721 580.72486011 -0.40362054 596.98420463 -0.42732814 C613.32145762 -0.45085517 629.65866723 -0.45987742 645.99593657 -0.45400551 C655.70796064 -0.45095804 665.41982622 -0.45912002 675.13182173 -0.48319017 C681.61578589 -0.49816526 688.09964601 -0.49867195 694.58361729 -0.48732725 C698.28049301 -0.48127578 701.97706855 -0.4815974 705.67391235 -0.49953273 C709.65438951 -0.51869766 713.63443316 -0.50698626 717.61493683 -0.49219131 C718.76509289 -0.50269937 719.91524895 -0.51320742 721.10025823 -0.5240339 C728.70090201 -0.45984258 733.8960241 0.70040338 739.953125 5.5703125 C746.15474942 13.00478997 748.37575189 21.81914015 750.3125 31.125 C752.45814422 40.7169914 755.62456964 49.21983952 760 58 C760.495 59.00417969 760.99 60.00835937 761.5 61.04296875 C786.74338631 109.67764509 840.73485681 135.05091453 890.40600586 151.11279297 C950.81482016 170.1082381 1013.45253576 174.29621752 1076.37926647 174.31664422 C1081.35453857 174.32050835 1086.3297799 174.33587287 1091.30503273 174.3496151 C1100.89861127 174.37447989 1110.49217901 174.38967421 1120.08578185 174.40119901 C1131.21712383 174.4150082 1142.34841463 174.4413362 1153.47973633 174.4675293 C1182.77813698 174.53046257 1212.0765715 174.57674145 1241.375 174.625 C1306.92125 174.74875 1372.4675 174.8725 1440 175 C1440 314.26 1440 453.52 1440 597 C964.8 597 489.6 597 0 597 C0 399.99 0 202.98 0 0 Z" fill="#D2DBE4" transform="translate(0,0)"/>
</svg>