<svg width="187" height="25" viewBox="0 0 187 25" fill="none" xmlns="http://www.w3.org/2000/svg">
<path d="M0.9 6.8H24.15V9.7H0.9V6.8ZM6.075 19.775H23.25V22.65H6.075V19.775ZM12.25 13.65H18.675V16.45H12.25V13.65ZM4.5 1.525H7.6V24.25H4.5V1.525ZM11 0.999999H14.025V17.475H11V0.999999ZM17.375 1.25H20.4V17.425H17.375V1.25ZM34.1 8.075V9.9H45.9V8.075H34.1ZM34.1 4.05V5.825H45.9V4.05H34.1ZM31.1 1.625H49.025V12.3H31.1V1.625ZM43.425 10.725C45.075 12.975 48.325 14.825 51.825 15.7C51.15 16.3 50.25 17.475 49.825 18.25C46.15 17.05 42.9 14.65 40.9 11.65L43.425 10.725ZM36.6 10.7L39.25 11.725C37.225 14.625 33.85 17.075 30.3 18.35C29.85 17.6 28.95 16.475 28.3 15.875C31.675 14.925 34.95 12.95 36.6 10.7ZM34.825 15.275H37.925V17C37.925 19.4 37.2 22.6 32.2 24.425C31.8 23.675 30.8 22.55 30.15 21.975C34.325 20.625 34.825 18.5 34.825 16.9V15.275ZM38.475 2.85H41.5V11.1H38.475V2.85ZM42.45 15.325H45.575V24.175H42.45V15.325ZM56.725 4.875C57.7 4.85 58.7 4.8 59.175 4.75C61.25 4.55 65.375 4.2 69.95 3.8C72.55 3.6 75.275 3.425 77.05 3.35L77.075 6.575C75.725 6.575 73.575 6.6 72.225 6.9C69.225 7.7 66.95 10.95 66.95 13.925C66.95 18.025 70.8 19.525 75.025 19.725L73.85 23.15C68.625 22.825 63.675 20 63.675 14.575C63.675 11 65.7 8.15 67.375 6.875C65.05 7.125 59.925 7.675 57.05 8.3L56.725 4.875ZM73.5 9.025C74.1 9.9 75 11.425 75.475 12.425L73.6 13.25C72.95 11.9 72.425 10.9 71.65 9.8L73.5 9.025ZM76.275 7.875C76.925 8.75 77.875 10.225 78.4 11.2L76.525 12.1C75.85 10.75 75.275 9.8 74.475 8.7L76.275 7.875ZM92.3 14.1H105.4V24.125H102.55V16.825H95.025V24.225H92.3V14.1ZM103.425 0.774999L105.725 3.125C102.05 4.525 96.975 5.3 92.55 5.7C92.425 4.975 92.025 3.8 91.7 3.125C95.95 2.7 100.65 1.875 103.425 0.774999ZM97.425 3.575H100.275V15.675H97.425V3.575ZM90.725 8.05H106.675V10.925H90.725V8.05ZM94.25 20.5H103.725V23.2H94.25V20.5ZM84.575 3.25L86.25 1.1C87.65 1.8 89.825 2.9 90.9 3.6L89.125 6.025C88.125 5.275 86 4.075 84.575 3.25ZM83.35 10.175L84.975 7.95C86.4 8.625 88.625 9.7 89.725 10.4L88.05 12.875C87.025 12.175 84.85 10.975 83.35 10.175ZM83.725 21.925C85.075 20.05 87 16.925 88.5 14.05L90.7 16.025C89.375 18.675 87.775 21.525 86.275 23.95L83.725 21.925ZM120.475 4.8H125.45V6.825H120.475V4.8ZM120.2 1.75H126.425V9.9H120.1V7.85H123.875V3.825H120.2V1.75ZM127.45 4.8H132.45V6.825H127.45V4.8ZM127.175 1.75H133.575V9.9H127.15V7.85H130.975V3.825H127.175V1.75ZM122.65 15.025H132.95V16.975H122.65V15.025ZM122.65 18.1H132.95V20.025H122.65V18.1ZM122.775 21.2H134.125V23.575H122.775V21.2ZM122.525 9.425L125.35 10.2C124.175 12.85 122.35 15.75 120.275 17.55C119.825 17 118.95 16.075 118.375 15.6C120.2 14.075 121.775 11.5 122.525 9.425ZM123.95 11.6H133.8V13.925H123.95V24.225H121.25V12.8L122.4 11.6H123.95ZM128 9.5L130.8 10.15C130.1 11.375 129.425 12.575 128.85 13.4L126.675 12.75C127.15 11.825 127.725 10.475 128 9.5ZM126.775 13.325H129.35V22.375H126.775V13.325ZM114.225 4.4V7.875H116.725V4.4H114.225ZM111.825 1.925H119.275V10.325H111.825V1.925ZM114.75 9.15H117.15V20.625H114.75V9.15ZM111.6 12.025H113.85V21.3H111.6V12.025ZM110.425 20.675C112.85 20.25 116.5 19.475 119.925 18.7L120.2 21.275C117 22.05 113.55 22.85 110.95 23.45L110.425 20.675ZM115.975 13.275H119.55V15.8H115.975V13.275ZM153.825 1.85C153.75 2.275 153.675 3.6 153.65 4C153.575 5.65 153.625 10.75 153.65 12.75L150.525 11.7C150.525 10.15 150.525 5.35 150.425 4.025C150.35 3.025 150.25 2.175 150.2 1.85H153.825ZM139.675 4.975C143.4 4.975 150 4.775 153.125 4.775C155.675 4.775 159.475 4.75 160.875 4.775L160.825 7.725C159.275 7.65 156.725 7.575 153.05 7.575C148.5 7.575 143.525 7.775 139.75 7.975L139.675 4.975ZM153.225 12.375C153.225 16.45 151.725 18.475 148.85 18.475C146.925 18.475 144.525 16.95 144.525 13.9C144.525 11.075 146.825 9.225 149.525 9.225C152.825 9.225 154.55 11.65 154.55 14.75C154.55 18.025 152.625 22.15 146.525 23.875L143.875 21.225C148.125 20.3 151.45 18.625 151.45 14.25C151.45 12.625 150.575 11.85 149.475 11.85C148.5 11.85 147.525 12.525 147.525 13.85C147.525 14.975 148.45 15.7 149.475 15.7C150.65 15.7 151.675 14.7 150.875 11.725L153.225 12.375ZM170.5 2.975C171.2 3.05 172.05 3.1 172.75 3.1C174.1 3.1 179.425 2.975 180.85 2.85C181.9 2.775 182.475 2.675 182.775 2.575L184.375 4.825C183.8 5.2 183.2 5.55 182.65 5.975C181.3 6.925 178.675 9.125 177.075 10.375C177.925 10.15 178.675 10.1 179.45 10.1C183.7 10.1 186.925 12.75 186.925 16.375C186.925 20.325 183.925 23.45 177.875 23.45C174.4 23.45 171.775 21.875 171.775 19.35C171.775 17.325 173.625 15.475 176.275 15.475C179.7 15.475 181.6 17.775 181.675 20.525L178.75 20.9C178.7 19.1 177.75 17.85 176.275 17.85C175.35 17.85 174.725 18.425 174.725 19.075C174.725 20 175.75 20.625 177.275 20.625C181.5 20.625 183.65 19.025 183.65 16.35C183.65 14.075 181.4 12.55 178.475 12.55C174.625 12.55 172.15 14.6 169.475 17.625L167.2 15.275C168.975 13.875 172 11.325 173.45 10.1C174.85 8.95 177.475 6.85 178.7 5.75C177.425 5.8 173.975 5.925 172.625 6.025C171.95 6.075 171.175 6.125 170.6 6.225L170.5 2.975Z" fill="#005F8F"/>
</svg>
