<?xml version="1.0" standalone="no"?><svg xmlns="http://www.w3.org/2000/svg" viewBox="0 0 1440 320"><path fill="#0099ff" fill-opacity="1" d="M0,288L24,240C48,192,96,96,144,64C192,32,240,64,288,101.3C336,139,384,181,432,165.3C480,149,528,75,576,64C624,53,672,107,720,133.3C768,160,816,160,864,170.7C912,181,960,203,1008,208C1056,213,1104,203,1152,181.3C1200,160,1248,128,1296,106.7C1344,85,1392,75,1416,69.3L1440,64L1440,0L1416,0C1392,0,1344,0,1296,0C1248,0,1200,0,1152,0C1104,0,1056,0,1008,0C960,0,912,0,864,0C816,0,768,0,720,0C672,0,624,0,576,0C528,0,480,0,432,0C384,0,336,0,288,0C240,0,192,0,144,0C96,0,48,0,24,0L0,0Z"></path></svg>